<?xml version="1.0" encoding="utf-8"?>
<!-- Svg Vector Icons : http://www.onlinewebfonts.com/icon -->
<!DOCTYPE svg PUBLIC "-//W3C//DTD SVG 1.1//EN" "http://www.w3.org/Graphics/SVG/1.1/DTD/svg11.dtd">
<svg version="1.1" xmlns="http://www.w3.org/2000/svg" xmlns:xlink="http://www.w3.org/1999/xlink" x="0px" y="0px" viewBox="0 0 1000 1000" enable-background="new 0 0 1000 1000" xml:space="preserve">
<metadata> Svg Vector Icons : http://www.onlinewebfonts.com/icon </metadata>
<g><g transform="matrix(1 0 0 -1 0 480)"><path d="M71.3-385.6c0,15.3,8.3,26.8,24.9,34.5L366-224.8c20.4,10.2,31.9,26.5,34.5,48.8s-4.5,40.5-21.1,54.6c-29.3,24.2-52.3,59-68.9,104.3c-16.6,45.3-24.9,85.2-24.9,119.6v153.1c0,33.2,23.3,67,69.9,101.4c46.6,34.5,94.7,51.7,144.5,51.7c51,0,99.5-17.2,145.5-51.7s68.9-68.3,68.9-101.4V102.5c0-35.7-7.7-75.9-23-120.6c-15.3-44.7-37.6-79.1-67-103.4c-17.9-14-25.5-32.2-23-54.6s14-38.6,34.5-48.8l91.9-44l15.3,61.3l-80.4,38.3c38.3,30.6,66.7,72.4,85.2,125.4c18.5,53,27.8,101.8,27.8,146.4v153.1c0,51-29.3,99.5-88,145.5S566,470,499,470s-129.5-23-187.6-68.9c-58.1-45.9-87.1-94.4-87.1-145.5V102.5c0-42.1,9.6-90,28.7-143.6s48.5-96.3,88-128.2L71.3-295.6c-5.1-1.3-10.8-3.8-17.2-7.7s-15.3-11.2-26.8-22S10-346.7,10-356.9v-91.9c0-16.6,6.1-30.9,18.2-43.1S54.7-510,71.3-510H745v61.3H71.3V-385.6z M959.4-326.3h-91.9v91.9c0,8.9-2.9,16.3-8.6,22s-13.1,8.6-22,8.6s-16.3-2.9-22-8.6s-8.6-13.1-8.6-22v-91.9h-91.9c-8.9,0-16.3-2.9-22-8.6s-8.6-13.1-8.6-22s2.9-16.3,8.6-22s13.1-8.6,22-8.6h91.9v-91.9c0-8.9,2.9-16.3,8.6-22s13.1-8.6,22-8.6s16.3,2.9,22,8.6s8.6,13.1,8.6,22v91.9h91.9c8.9,0,16.3,2.9,22,8.6s8.6,13.1,8.6,22s-2.9,16.3-8.6,22S968.3-326.3,959.4-326.3z"/></g></g>
</svg>